<svg width="36" height="36" viewBox="0 0 36 36" fill="none" xmlns="http://www.w3.org/2000/svg">
<path d="M25.2375 12.1768C25.628 11.7862 25.628 11.1531 25.2375 10.7626C24.847 10.372 24.2138 10.372 23.8233 10.7626L18.0001 16.5858L12.1769 10.7626C11.7863 10.372 11.1532 10.372 10.7626 10.7626C10.3721 11.1531 10.3721 11.7862 10.7626 12.1768L16.5859 18L10.7626 23.8232C10.3721 24.2137 10.3721 24.8469 10.7626 25.2374C11.1532 25.628 11.7863 25.628 12.1769 25.2374L18.0001 19.4142L23.8233 25.2374C24.2138 25.628 24.847 25.628 25.2375 25.2374C25.628 24.8469 25.628 24.2137 25.2375 23.8232L19.4143 18L25.2375 12.1768Z" fill="#F4F4F4" fill-opacity="0.48"/>
</svg>
