<svg width="12" height="12" viewBox="0 0 12 12" fill="none" xmlns="http://www.w3.org/2000/svg">
<path fill-rule="evenodd" clip-rule="evenodd" d="M5.59369 0.834185C5.85234 0.719172 6.14763 0.719172 6.40628 0.834185C6.60605 0.923011 6.73582 1.07947 6.82612 1.20696C6.91489 1.3323 7.00995 1.49651 7.11448 1.67709L11.2481 8.81697C11.353 8.9982 11.4484 9.1629 11.5131 9.30268C11.5788 9.44475 11.6501 9.63572 11.6274 9.85369C11.598 10.1357 11.4502 10.392 11.2208 10.5588C11.0436 10.6877 10.8426 10.7217 10.6867 10.736C10.5333 10.75 10.343 10.75 10.1336 10.75H1.86641C1.65697 10.75 1.46663 10.75 1.31326 10.736C1.15738 10.7217 0.956381 10.6877 0.779134 10.5588C0.549776 10.392 0.402006 10.1357 0.3726 9.85369C0.349876 9.63572 0.421178 9.44475 0.486903 9.30268C0.551573 9.16289 0.64695 8.99818 0.751905 8.81693L4.88548 1.67711C4.99002 1.49651 5.08507 1.3323 5.17386 1.20696C5.26416 1.07947 5.39392 0.923011 5.59369 0.834185ZM5.99952 6.97717C6.3321 6.97717 6.6017 6.70757 6.6017 6.375V3.97717C6.6017 3.6446 6.3321 3.375 5.99952 3.375C5.66694 3.375 5.39734 3.6446 5.39734 3.97717V6.375C5.39734 6.70757 5.66694 6.97717 5.99952 6.97717ZM5.39734 8.77283C5.39734 9.1054 5.66694 9.375 5.99952 9.375H6.00557C6.33814 9.375 6.60775 9.1054 6.60775 8.77283C6.60775 8.44025 6.33814 8.17065 6.00557 8.17065H5.99952C5.66694 8.17065 5.39734 8.44025 5.39734 8.77283Z" fill="#FF5F5F"/>
</svg>
