<svg width="14" height="14" viewBox="0 0 14 14" fill="none" xmlns="http://www.w3.org/2000/svg">
<path d="M8.10476 7.33883L9.64492 7.9989C9.72074 8.03136 9.80832 8.06885 9.88145 8.10802C9.96381 8.15214 10.0839 8.22647 10.1814 8.3576C10.3049 8.52346 10.3656 8.72767 10.3528 8.93402C10.3427 9.09717 10.2827 9.22501 10.2379 9.30695C10.198 9.37971 10.1451 9.45895 10.0994 9.52756C9.81309 9.95703 9.55558 10.5505 9.14947 10.8843C9.0606 10.9574 8.95821 11.0122 8.84814 11.0456C8.33936 11.2001 7.41276 11.2283 6.88994 11.0226C6.75362 10.969 6.63294 10.882 6.53897 10.7697C6.18632 10.348 6.09274 9.6232 5.92437 9.11784L5.91988 9.1046C5.90333 9.05605 5.86912 8.95576 5.85979 8.84765C5.85189 8.75617 5.85844 8.66402 5.8792 8.57458C5.96524 8.20381 6.20476 7.81675 6.39703 7.49602C6.43715 7.42911 6.49918 7.33893 6.59856 7.25881C6.72924 7.15347 6.88746 7.08793 7.05435 7.07002C7.18128 7.0564 7.28891 7.0763 7.36458 7.09525C7.61307 7.15747 7.87006 7.23824 8.10476 7.33883Z" fill="#F4F4F4"/>
<path fill-rule="evenodd" clip-rule="evenodd" d="M6.99998 0.583344C3.45615 0.583344 0.583313 3.45618 0.583313 7.00001C0.583313 10.5438 3.45615 13.4167 6.99998 13.4167C10.5438 13.4167 13.4166 10.5438 13.4166 7.00001C13.4166 3.45618 10.5438 0.583344 6.99998 0.583344ZM2.04487 5.26091C1.85386 5.80519 1.74998 6.39047 1.74998 7.00001C1.74998 9.89951 4.10048 12.25 6.99998 12.25C9.89948 12.25 12.25 9.89951 12.25 7.00001C12.25 4.76439 10.8526 2.85514 8.88363 2.09805C8.83525 2.82461 9.08901 3.97152 8.47993 4.53218C7.84119 5.12014 6.69791 5.37461 5.91725 5.72152L5.39895 6.41259C5.35818 6.467 5.30929 6.53224 5.26148 6.58629C5.20591 6.64911 5.12056 6.73403 4.99515 6.79663C4.83231 6.87793 4.64818 6.90642 4.46839 6.87815C4.32992 6.85637 4.22289 6.80122 4.15094 6.75814C4.08902 6.72107 4.02271 6.67367 3.9674 6.63413L2.04487 5.26091Z" fill="#F4F4F4"/>
</svg>
